<?xml version="1.0" standalone="no"?>
<!DOCTYPE svg PUBLIC "-//W3C//DTD SVG 20010904//EN"
 "http://www.w3.org/TR/2001/REC-SVG-20010904/DTD/svg10.dtd">
<svg version="1.0" xmlns="http://www.w3.org/2000/svg"
 width="512.000000pt" height="512.000000pt" viewBox="0 0 512.000000 512.000000"
 preserveAspectRatio="xMidYMid meet">

<g transform="translate(0.000000,512.000000) scale(0.100000,-0.100000)"
fill="#000000" stroke="none">
<path d="M915 4935 c-25 -24 -25 -26 -25 -215 0 -189 0 -191 25 -215 18 -18
35 -25 65 -25 l40 0 0 -317 0 -318 -389 -298 c-382 -292 -391 -299 -420 -359
-26 -51 -31 -73 -30 -127 1 -120 50 -201 153 -251 60 -30 72 -32 138 -28 87 6
105 14 239 116 57 43 110 82 117 86 9 6 12 -212 12 -1073 l0 -1081 -138 0
c-122 0 -141 -2 -155 -18 -15 -16 -17 -47 -17 -224 0 -196 1 -206 21 -224 20
-18 53 -19 995 -22 l974 -2 0 -33 c1 -55 18 -111 41 -129 20 -17 91 -18 1170
-18 l1148 0 28 24 c26 23 28 29 31 129 5 127 -16 209 -76 302 -87 135 -245
225 -393 225 -47 0 -47 0 -73 54 -16 33 -51 77 -86 110 l-60 55 0 965 c0 532
3 966 7 966 3 0 56 -38 118 -84 141 -106 165 -118 247 -124 120 -8 215 45 267
149 52 104 38 228 -36 316 -31 37 -2116 1627 -2168 1653 -35 18 -70 26 -120
28 -111 6 -148 -14 -410 -215 -126 -97 -294 -225 -372 -285 l-143 -109 0 80 0
81 39 0 c23 0 48 8 62 19 24 19 24 21 24 221 0 200 0 202 -24 221 -22 18 -44
19 -413 19 l-389 0 -24 -25z m705 -220 l0 -95 -290 0 -290 0 0 95 0 95 290 0
290 0 0 -95z m2064 -750 c582 -445 1066 -821 1075 -834 23 -36 21 -113 -5
-148 -30 -42 -86 -66 -132 -58 -31 5 -234 156 -1033 767 -547 418 -1005 765
-1018 771 -18 9 -29 8 -51 -5 -15 -8 -467 -352 -1005 -763 -537 -411 -993
-754 -1013 -762 -99 -41 -206 59 -174 165 7 21 22 47 34 59 34 30 2066 1582
2102 1605 24 15 45 18 96 16 l65 -3 1059 -810z m-2194 377 l0 -138 -160 -122
c-87 -67 -162 -122 -165 -122 -3 0 -5 117 -5 260 l0 260 165 0 165 0 0 -138z
m1515 -388 c248 -190 597 -459 778 -597 l327 -250 0 -1004 0 -1003 -48 0 c-27
0 -72 -7 -101 -15 l-52 -16 -52 44 c-101 84 -192 124 -312 133 -219 18 -442
-130 -522 -346 -20 -53 -22 -55 -64 -62 -24 -3 -155 -7 -291 -7 l-248 -1 0
734 c0 727 0 734 -21 760 l-20 26 -463 0 c-435 0 -464 -1 -479 -18 -15 -17
-17 -87 -19 -758 l-3 -739 -213 -3 -212 -2 2 1142 3 1142 775 593 c426 326
777 593 780 593 3 0 208 -156 455 -346z m-735 -2434 l0 -690 -352 2 -353 3 -3
688 -2 687 355 0 355 0 0 -690z m1395 -453 c43 -20 80 -49 127 -99 75 -80 102
-88 156 -50 45 32 118 47 168 33 86 -23 142 -81 170 -178 18 -61 34 -73 101
-73 79 -1 171 -17 218 -40 99 -48 179 -168 191 -288 l7 -62 -1073 0 -1072 0 7
57 c24 194 148 313 343 328 98 8 117 19 127 72 28 150 124 267 258 315 78 27
194 21 272 -15z m-1053 -435 c-22 -31 -46 -75 -54 -97 l-16 -40 -936 -3 -936
-2 0 100 0 100 990 0 990 0 -38 -58z"/>
<path d="M2429 3604 c-200 -69 -295 -306 -200 -499 69 -140 215 -216 376 -194
114 15 222 97 273 207 23 48 27 70 27 147 0 76 -4 98 -26 145 -37 78 -88 131
-161 170 -56 30 -73 34 -153 37 -63 2 -104 -2 -136 -13z m184 -135 c84 -23
147 -110 147 -204 0 -198 -238 -289 -368 -140 -42 47 -53 77 -53 140 0 63 11
93 53 140 57 66 134 88 221 64z"/>
<path d="M2800 2330 c-19 -19 -20 -33 -20 -460 0 -427 1 -441 20 -460 19 -19
33 -20 463 -20 439 0 444 0 463 21 18 20 19 42 19 459 0 417 -1 439 -19 459
-19 21 -24 21 -463 21 -430 0 -444 -1 -463 -20z m390 -245 l0 -125 -135 0
-135 0 0 125 0 125 135 0 135 0 0 -125z m410 0 l0 -125 -135 0 -135 0 0 118
c0 65 3 122 7 125 3 4 64 7 135 7 l128 0 0 -125z m-412 -412 l3 -143 -136 0
-135 0 0 138 c0 76 3 142 7 146 4 3 63 5 132 4 l126 -3 3 -142z m412 2 l0
-146 -132 3 -133 3 -3 129 c-1 72 0 136 2 143 4 10 38 13 136 13 l130 0 0
-145z"/>
</g>
</svg>
